<svg id="Group_1553" data-name="Group 1553" xmlns="http://www.w3.org/2000/svg" width="53.544" height="57.133" viewBox="0 0 53.544 57.133">
  <g id="Rectangle_2029" data-name="Rectangle 2029" transform="translate(31.585 31.087)" fill="#1b1464" stroke="#1b1464" stroke-width="1">
    <path d="M0,0H21.845a0,0,0,0,1,0,0V16.046a10,10,0,0,1-10,10H0a0,0,0,0,1,0,0V0A0,0,0,0,1,0,0Z" stroke="none"/>
    <path d="M1,.5H20.845a.5.5,0,0,1,.5.5V16.046a9.5,9.5,0,0,1-9.5,9.5H1a.5.5,0,0,1-.5-.5V1A.5.5,0,0,1,1,.5Z" fill="none"/>
  </g>
  <g id="planning">
    <g id="Group_455" data-name="Group 455" transform="translate(0 41.88)">
      <g id="Group_454" data-name="Group 454">
        <path id="Path_348" data-name="Path 348" d="M6.665,377H3.333a3.333,3.333,0,1,0,0,6.665H6.665a3.333,3.333,0,1,0,0-6.665Z" transform="translate(0 -377)" fill="#1b1464"/>
      </g>
    </g>
    <g id="Group_457" data-name="Group 457" transform="translate(0 25.217)">
      <g id="Group_456" data-name="Group 456">
        <path id="Path_349" data-name="Path 349" d="M6.665,227H3.333a3.333,3.333,0,0,0,0,6.665H6.665a3.333,3.333,0,0,0,0-6.665Z" transform="translate(0 -227)" fill="#1b1464"/>
      </g>
    </g>
    <g id="Group_459" data-name="Group 459" transform="translate(0 8.331)">
      <g id="Group_458" data-name="Group 458">
        <path id="Path_350" data-name="Path 350" d="M6.665,75H3.333a3.333,3.333,0,0,0,0,6.665H6.665a3.333,3.333,0,0,0,0-6.665Z" transform="translate(0 -75)" fill="#1b1464"/>
      </g>
    </g>
    <g id="Group_461" data-name="Group 461" transform="translate(6.665)">
      <g id="Group_460" data-name="Group 460">
        <path id="Path_351" data-name="Path 351" d="M101.657,0H65a5,5,0,0,0-5,5,6.665,6.665,0,0,1,0,13.33v3.555a6.665,6.665,0,0,1,0,13.33v3.333a6.665,6.665,0,0,1,0,13.33,5,5,0,0,0,5,5H89.015c-3.438-2.751,15.478-25.722,17.863-24.122V5A5.2,5.2,0,0,0,101.657,0ZM82.84,36.392l-6.665,6.665a1.665,1.665,0,0,1-2.356,0l-3.8-3.8A1.666,1.666,0,1,1,72.374,36.9L75,39.523l5.487-5.487a1.666,1.666,0,1,1,2.356,2.356Zm0-13.33-6.665,6.665a1.665,1.665,0,0,1-2.356,0l-3.8-3.8a1.666,1.666,0,1,1,2.356-2.356L75,26.193l5.487-5.487a1.666,1.666,0,1,1,2.356,2.356Zm0-13.553-6.665,6.665a1.665,1.665,0,0,1-2.356,0l-3.8-3.8a1.666,1.666,0,1,1,2.356-2.356L75,12.64l5.487-5.487A1.666,1.666,0,1,1,82.84,9.51ZM98.325,26.883h-10a1.666,1.666,0,0,1,0-3.333h10a1.666,1.666,0,1,1,0,3.333Zm0-13.553h-10a1.666,1.666,0,0,1,0-3.333h10a1.666,1.666,0,1,1,0,3.333Z" transform="translate(-60)" fill="#1b1464"/>
        <rect id="Rectangle_2030" data-name="Rectangle 2030" width="13.443" height="3.361" rx="1.68" transform="translate(26.601 36.969)" fill="#fff"/>
      </g>
    </g>
  </g>
</svg>
