<svg id="Group_1555" data-name="Group 1555" xmlns="http://www.w3.org/2000/svg" width="58.447" height="62.885" viewBox="0 0 58.447 62.885">
  <g id="planning" transform="translate(0)">
    <g id="Group_453" data-name="Group 453" transform="translate(31.325 31.533)">
      <g id="Group_452" data-name="Group 452">
        <path id="Path_347" data-name="Path 347" d="M310.964,302a10.964,10.964,0,1,0,0,21.927,10.966,10.966,0,1,0,0-21.927Zm3.132,12.53h-3.132a1.565,1.565,0,0,1-1.566-1.566v-3.132a1.566,1.566,0,1,1,3.132,0V311.4H314.1a1.566,1.566,0,1,1,0,3.132Z" transform="translate(-300 -302)" fill="#1b1464"/>
      </g>
    </g>
    <g id="Group_455" data-name="Group 455" transform="translate(0 39.364)">
      <g id="Group_454" data-name="Group 454">
        <path id="Path_348" data-name="Path 348" d="M6.265,377H3.132a3.132,3.132,0,1,0,0,6.265H6.265a3.132,3.132,0,1,0,0-6.265Z" transform="translate(0 -377)" fill="#1b1464"/>
      </g>
    </g>
    <g id="Group_457" data-name="Group 457" transform="translate(0 23.702)">
      <g id="Group_456" data-name="Group 456">
        <path id="Path_349" data-name="Path 349" d="M6.265,227H3.132a3.132,3.132,0,0,0,0,6.265H6.265a3.132,3.132,0,1,0,0-6.265Z" transform="translate(0 -227)" fill="#1b1464"/>
      </g>
    </g>
    <g id="Group_459" data-name="Group 459" transform="translate(0 7.831)">
      <g id="Group_458" data-name="Group 458">
        <path id="Path_350" data-name="Path 350" d="M6.265,75H3.132a3.132,3.132,0,1,0,0,6.265H6.265a3.132,3.132,0,1,0,0-6.265Z" transform="translate(0 -75)" fill="#1b1464"/>
      </g>
    </g>
    <g id="Group_461" data-name="Group 461" transform="translate(6.265)">
      <g id="Group_460" data-name="Group 460">
        <path id="Path_351" data-name="Path 351" d="M99.156,0H64.7A4.7,4.7,0,0,0,60,4.7a6.265,6.265,0,0,1,0,12.53V20.57A6.265,6.265,0,0,1,60,33.1v3.132a6.265,6.265,0,0,1,0,12.53,4.7,4.7,0,0,0,4.7,4.7H87.273c-3.231-2.585,14.549-24.178,16.791-22.673V4.7A4.887,4.887,0,0,0,99.156,0ZM81.468,34.207,75.2,40.472a1.565,1.565,0,0,1-2.215,0L69.416,36.9a1.566,1.566,0,0,1,2.215-2.215L74.1,37.15l5.158-5.158a1.566,1.566,0,1,1,2.215,2.215Zm0-12.53L75.2,27.942a1.565,1.565,0,0,1-2.215,0l-3.573-3.573a1.566,1.566,0,1,1,2.215-2.215L74.1,24.62l5.158-5.158a1.566,1.566,0,1,1,2.215,2.215Zm0-12.739L75.2,15.2a1.565,1.565,0,0,1-2.215,0L69.416,11.63A1.566,1.566,0,1,1,71.63,9.416L74.1,11.881l5.158-5.158a1.566,1.566,0,1,1,2.215,2.215Zm14.555,16.33h-9.4a1.566,1.566,0,1,1,0-3.132h9.4a1.566,1.566,0,0,1,0,3.132Zm0-12.739h-9.4a1.566,1.566,0,1,1,0-3.132h9.4a1.566,1.566,0,0,1,0,3.132Z" transform="translate(-60)" fill="#1b1464"/>
      </g>
    </g>
  </g>
  <path id="Path_347-2" data-name="Path 347" d="M-246.789,545.213c-2.857-.834-5.557-1.622-8.283-2.4a4.573,4.573,0,0,0-2.466.042c-3.253.92-6.431,1.825-9.56,2.782a3.835,3.835,0,0,0-2.557,3.453q0,1.112,0,2.226c-.006,3.1-.012,6.3.173,9.485.379,6.551,5.475,13.055,11.855,15.128a4.713,4.713,0,0,0,1.445.226,4.215,4.215,0,0,0,1.54-.278c6.447-2.549,10.368-7.065,11.339-13.06a71.093,71.093,0,0,0,.671-10.022c.027-1.4.055-2.844.12-4.244l.1-2.067-2.131-.621Z" transform="translate(300.347 -513.773)" fill="#1b1464" stroke="#fff" stroke-width="1"/>
  <path id="Path_348-2" data-name="Path 348" d="M-237.267,556.307c-.218,4.674-.02,9.4-.76,13.969-.885,5.469-4.6,9.013-9.71,11.036a1.929,1.929,0,0,1-1.207,0c-5.237-1.7-9.725-7.288-10.042-12.78-.222-3.846-.16-7.708-.167-11.563a1.253,1.253,0,0,1,.7-.936c3.156-.965,6.33-1.868,9.506-2.766a2,2,0,0,1,1.032-.043C-244.448,554.206-240.987,555.223-237.267,556.307Z" transform="translate(292.475 -521.648)" fill="#fff"/>
  <path id="Path_349-2" data-name="Path 349" d="M-241.41,569.35l2.512,5.089,5.617.816-4.064,3.962.959,5.594-5.024-2.641-5.024,2.641.959-5.594-4.064-3.962,5.617-.816Z" transform="translate(286.082 -533.779)" fill="#1b1464"/>
</svg>
