<svg xmlns="http://www.w3.org/2000/svg" width="52.564" height="47.441" viewBox="0 0 52.564 47.441">
  <path id="Path_52" data-name="Path 52" d="M745.958,14.289l38.376-8.7L783.8,3.24a1.247,1.247,0,0,0-1.483-.94l-35.965,8.1a1.244,1.244,0,0,0-.94,1.483c.183.8.36,1.607.544,2.4Zm-.319-6.015,36.42-8.2a3.231,3.231,0,0,1,3.858,2.44l3.817,16.869h-2.281l-1.731-7.64-38.376,8.7,2.375,10.476.213.928a.694.694,0,0,0,.833.526l.284-.065v2.233l-.041.012a2.7,2.7,0,0,1-3.208-2.027l-4.615-20.4a3.223,3.223,0,0,1,2.452-3.864h0ZM755.093,20a3.235,3.235,0,0,0-3.226,3.232V44.216a3.23,3.23,0,0,0,3.226,3.226h37.342a3.239,3.239,0,0,0,3.232-3.226V23.228A3.24,3.24,0,0,0,792.435,20Zm36.556,9.395V25.119a.492.492,0,0,0-.5-.5H781.6a.5.5,0,0,0-.5.5v4.272a.5.5,0,0,0,.5.5h9.554a.5.5,0,0,0,.5-.5Zm-7.043,12.951a.5.5,0,0,1-.5-.5v-.993a.5.5,0,0,1,.5-.5h6.541a.5.5,0,0,1,.5.5v.993a.5.5,0,0,1-.5.5Zm-9.129,0a.5.5,0,0,1-.5-.5v-.987a.5.5,0,0,1,.5-.5h6.547a.5.5,0,0,1,.5.5v.987a.5.5,0,0,1-.5.5Zm-9.123,0a.5.5,0,0,1-.5-.5v-.987a.5.5,0,0,1,.5-.5H772.9a.5.5,0,0,1,.5.5v.987a.5.5,0,0,1-.5.5Zm-9.123,0a.5.5,0,0,1-.5-.5v-.987a.5.5,0,0,1,.5-.5h6.547a.5.5,0,0,1,.5.5v.987a.5.5,0,0,1-.5.5Z" transform="translate(-743.103)" fill="#1b1464" fill-rule="evenodd"/>
</svg>
