<?xml version="1.0" encoding="utf-8"?>
<!-- Generator: Adobe Illustrator 22.0.0, SVG Export Plug-In . SVG Version: 6.00 Build 0)  -->
<svg version="1.1" id="Group_155" xmlns="http://www.w3.org/2000/svg" xmlns:xlink="http://www.w3.org/1999/xlink" x="0px" y="0px"
	 viewBox="0 0 45.6 51.9" style="enable-background:new 0 0 45.6 51.9;" xml:space="preserve">
<g>
	<path d="M43.2,17H30.7V4.6c0-2.5-2.1-4.6-4.6-4.6H4.6C2.1,0,0,2.1,0,4.6v42.7c0,2.5,2.1,4.6,4.6,4.6h21.5c2.5,0,4.6-2.1,4.6-4.6
		v-9.9h12.5c1.3,0,2.4-1.1,2.4-2.4V19.4C45.6,18.1,44.5,17.1,43.2,17z M12.8,4.4h5.1c0.3,0,0.6,0.4,0.6,0.9c0,0.5-0.3,0.9-0.6,0.9
		h-5.1c-0.3,0-0.6-0.4-0.6-0.9C12.2,4.8,12.4,4.4,12.8,4.4z M15.3,49.4c-1.6,0-2.9-1.3-2.9-2.8s1.3-2.9,2.9-2.9
		c1.6,0,2.9,1.3,2.9,2.9S16.9,49.4,15.3,49.4z M28.1,33.6h-4.2c-0.2,0-0.4-0.2-0.4-0.4v-0.7c0-0.2,0.2-0.4,0.4-0.4h4.2V33.6z
		 M28.1,17H15.6c-1.3,0-2.4,1.1-2.4,2.4V35c0,1.3,1.1,2.4,2.4,2.4h12.6v3.9H2.5V10.6h25.6V17z M22.4,32.5v0.7c0,0.2-0.2,0.4-0.4,0.4
		c0,0,0,0,0,0h-4.8c-0.2,0-0.4-0.2-0.4-0.4v-0.7c0-0.2,0.2-0.4,0.4-0.4H22C22.2,32.1,22.4,32.3,22.4,32.5z M35.9,32.5l0,0.7
		c0,0.2-0.2,0.4-0.4,0.4h-4.8v-1.5h4.8C35.7,32.1,35.9,32.3,35.9,32.5L35.9,32.5z M42.6,33.2c0,0.2-0.2,0.4-0.4,0.4c0,0,0,0,0,0
		h-4.8c-0.2,0-0.4-0.2-0.4-0.4v-0.7c0-0.2,0.2-0.4,0.4-0.4h4.8c0.2,0,0.4,0.2,0.4,0.4V33.2z M42.6,20.8V24c0,0.2-0.2,0.4-0.4,0.4
		h-7.1c-0.2,0-0.4-0.2-0.4-0.4v-3.2c0-0.2,0.2-0.4,0.4-0.4h7.1C42.5,20.5,42.6,20.6,42.6,20.8C42.6,20.8,42.6,20.8,42.6,20.8z"/>
</g>
</svg>
