<svg id="Layer_2" data-name="Layer 2" xmlns="http://www.w3.org/2000/svg" viewBox="0 0 48 48"><defs><style>.cls-1{fill:none;}.cls-2{fill:#fff;}</style></defs><title>FPX Logo</title><rect class="cls-1" width="48" height="48"/><g id="Group_2317" data-name="Group 2317"><path id="Path_4741" data-name="Path 4741" class="cls-2" d="M587.5,57.76V54.82s-.19-2.52-1.82-.58l-4.21,5.68a2.26,2.26,0,0,0,0,2.86l4.21,5.67c1.63,1.94,1.82-.58,1.82-.58V64.94l-1.77-2.35a1.58,1.58,0,0,1,0-2.48Z" transform="translate(-580.39 -37.35)"/><path id="Path_4742" data-name="Path 4742" class="cls-2" d="M588.78,57.76V54.82s.19-2.52,1.82-.58l4.22,5.68a2.26,2.26,0,0,1,0,2.86l-4.22,5.67c-1.63,1.94-1.82-.58-1.82-.58V64.94l1.77-2.35a1.58,1.58,0,0,0,0-2.48Z" transform="translate(-580.39 -37.35)"/><path id="Path_4743" data-name="Path 4743" class="cls-2" d="M605.64,57.81V55.38h-7.49v11.3h2.43V62.37h4.77V59.94h-4.77V57.81Z" transform="translate(-580.39 -37.35)"/><path id="Path_4744" data-name="Path 4744" class="cls-2" d="M615.88,58.79v-.08h0a3.23,3.23,0,0,0-3.53-3.33h-4.89v11.3h2.43V62.24h2.46a3.23,3.23,0,0,0,3.53-3.33h0v-.12Zm-3.72,1.31h-2.27V57.52h2.27s1.14-.17,1.19,1.29-1.16,1.27-1.19,1.29Z" transform="translate(-580.39 -37.35)"/><path id="Path_4745" data-name="Path 4745" class="cls-2" d="M627.83,66.68l-4.18-5.75,4-5.55h-3.08l-2.48,3.42-2.48-3.42h-3.08l4,5.55-4.18,5.75h3.09l2.63-3.63,2.63,3.63Z" transform="translate(-580.39 -37.35)"/></g></svg>