<svg xmlns="http://www.w3.org/2000/svg" width="36.456" height="62.218" viewBox="0 0 36.456 62.218">
  <g id="foam-hand" transform="translate(-106)">
    <path id="Path_4612" data-name="Path 4612" d="M141.468,2.734a2.734,2.734,0,0,0-5.468,0V23.7h5.468Z" transform="translate(-26.354)" fill="#1b1464"/>
    <path id="Path_4613" data-name="Path 4613" d="M288.734,136.405a2.734,2.734,0,0,0,2.734-2.734V122.734a2.734,2.734,0,1,0-5.468,0v10.937A2.734,2.734,0,0,0,288.734,136.405Z" transform="translate(-158.127 -105.418)" fill="#1b1464"/>
    <path id="Path_4614" data-name="Path 4614" d="M135.165,230.362a6.325,6.325,0,0,1-9.581-.566,10.886,10.886,0,0,1-8.647,4.318h-1.823a1.823,1.823,0,0,1,0-3.646h1.823A7.3,7.3,0,0,0,124,225H107.823A1.823,1.823,0,0,0,106,226.823v4.98c0,5.124,1.6,10.355,5.333,13.871a6.187,6.187,0,0,1,1.958,4.532v7.847a1.823,1.823,0,0,0,1.823,1.823h21.873a1.823,1.823,0,0,0,1.823-1.823v-7.1a16.284,16.284,0,0,1,1.726-7.1,19.2,19.2,0,0,0,1.919-8.343v-3.855a6.281,6.281,0,0,1-7.291-1.289Zm-5.468,21.98h-7.291a1.823,1.823,0,0,1,0-3.646h1.823v-6.164l-1.008.5a1.823,1.823,0,0,1-1.631-3.261l3.646-1.823a1.823,1.823,0,0,1,2.638,1.631V248.7H129.7a1.823,1.823,0,0,1,0,3.646Z" transform="translate(0 -197.658)" fill="#1b1464"/>
    <path id="Path_4615" data-name="Path 4615" d="M363.734,150A2.734,2.734,0,0,0,361,152.734v7.291a2.734,2.734,0,1,0,5.468,0v-7.291A2.734,2.734,0,0,0,363.734,150Z" transform="translate(-224.013 -131.772)" fill="#1b1464"/>
    <path id="Path_4616" data-name="Path 4616" d="M216.468,92.734a2.734,2.734,0,1,0-5.468,0V102.76h5.468Z" transform="translate(-92.24 -79.063)" fill="#1b1464"/>
  </g>
</svg>
