<svg id="Layer_1" data-name="Layer 1" xmlns="http://www.w3.org/2000/svg" viewBox="0 0 64 64"><defs></defs><title>msig-ico</title><path id="Union_16" data-name="Union 16" class="cls-1" d="M61.57,64H47.71V48.31H61.57a2,2,0,0,1,2,2h0V62a2,2,0,0,1-2,2Zm-4.91-5.49a1.83,1.83,0,0,0,.65-.37,1.59,1.59,0,0,0,.38-.57,2.16,2.16,0,0,0,.12-.71,1.45,1.45,0,0,0-.1-.58,1.4,1.4,0,0,0-.26-.39,1.57,1.57,0,0,0-.32-.24l-.31-.14a1.35,1.35,0,0,0,.26-.15,1.16,1.16,0,0,0,.28-.26,1.2,1.2,0,0,0,.23-.37,1.58,1.58,0,0,0,.09-.52,1.56,1.56,0,0,0-.11-.57,1.12,1.12,0,0,0-.32-.45,1.6,1.6,0,0,0-.56-.3,2.57,2.57,0,0,0-.82-.11,3.08,3.08,0,0,0-.61,0,2.85,2.85,0,0,0-.48.13,1.58,1.58,0,0,0-.35.16,1,1,0,0,0-.24.15l-.14.15a.26.26,0,0,0-.07.2.58.58,0,0,0,.11.31,1.3,1.3,0,0,0,.28.34,1.89,1.89,0,0,1,.27-.2,1.49,1.49,0,0,1,.3-.18,2,2,0,0,1,.34-.13,1.4,1.4,0,0,1,.41,0,.93.93,0,0,1,.6.16.59.59,0,0,1,.2.5.78.78,0,0,1-.09.37.73.73,0,0,1-.22.24.9.9,0,0,1-.27.11l-.26,0h-.43V56h.43l.28,0a.94.94,0,0,1,.32.11.75.75,0,0,1,.27.26.77.77,0,0,1,.1.45.88.88,0,0,1-.08.42.83.83,0,0,1-.21.28.87.87,0,0,1-.3.16,1.47,1.47,0,0,1-.36,0,1.75,1.75,0,0,1-.46,0,2.26,2.26,0,0,1-.39-.15,2.63,2.63,0,0,1-.33-.2l-.23-.2a1.58,1.58,0,0,0-.35.75.38.38,0,0,0,.07.21.44.44,0,0,0,.19.17l.21.12a1.51,1.51,0,0,0,.33.13,2.11,2.11,0,0,0,.45.1,3.69,3.69,0,0,0,.58,0,2.64,2.64,0,0,0,.92-.14ZM18.27,64V38.5a2,2,0,0,1,2-2H43.77a2,2,0,0,1,2,2V64Zm13.24-6.65h2.63V44.74a2.86,2.86,0,0,0-.43-.21,1.83,1.83,0,0,0-.66-.11,1.93,1.93,0,0,0-.75.15c-.25.1-.5.21-.76.34l-2.76,1.44a1.19,1.19,0,0,0-.48.41.86.86,0,0,0-.14.46,1.49,1.49,0,0,0,.26.8c.18.29.36.55.54.8l2.55-1.28ZM2.43,64h0a2,2,0,0,1-2-2V46.34a2,2,0,0,1,2-2H16.29V64ZM8.19,51.77a1.35,1.35,0,0,1,.29,0,1,1,0,0,1,.25.12.88.88,0,0,1,.19.24,1,1,0,0,1,.07.38,1.65,1.65,0,0,1-.2.72,4.46,4.46,0,0,1-.52.71c-.14.16-.3.32-.45.48l-.47.45-.44.4a4.08,4.08,0,0,1-.36.31v.8h3.8c0-.05,0-.09,0-.14v-.16a.76.76,0,0,0,0-.21.67.67,0,0,0-.12-.2.6.6,0,0,0-.21-.14.7.7,0,0,0-.32,0H8.08q.2-.17.42-.39L9,54.67c.14-.16.29-.32.43-.49a5.14,5.14,0,0,0,.37-.54,3.79,3.79,0,0,0,.26-.58,1.72,1.72,0,0,0,.1-.6,1.87,1.87,0,0,0-.14-.74,1.28,1.28,0,0,0-.39-.5A1.52,1.52,0,0,0,9,50.94a2.66,2.66,0,0,0-1.78.12,2.37,2.37,0,0,0-.35.19l-.23.17a.67.67,0,0,0-.14.15.35.35,0,0,0,0,.18.65.65,0,0,0,.11.29,3.27,3.27,0,0,0,.28.37A3,3,0,0,1,7.44,52a1.42,1.42,0,0,1,.72-.2ZM23.78,27.71a2,2,0,0,1-1.61-2.26l1.3-7.6L18,12.46A2,2,0,0,1,19,9.12L26.67,8l3.41-6.92a2,2,0,0,1,3.52,0L37,8l7.63,1.11a2,2,0,0,1,1.66,2.22,1.92,1.92,0,0,1-.57,1.12l-5.52,5.39,1.3,7.6a2,2,0,0,1-2.85,2.06l-6.82-3.58L25,27.51a1.92,1.92,0,0,1-.91.23,1.66,1.66,0,0,1-.32,0Z"/></svg>