<svg xmlns="http://www.w3.org/2000/svg" width="72" height="72" viewBox="0 0 72 72">
  <g id="Group_2301" data-name="Group 2301" transform="translate(-90 -126)">
    <rect id="Rectangle_1" data-name="Rectangle 1" width="72" height="72" transform="translate(90 126)" fill="#dbaaaa" opacity="0"/>
    <g id="Group_14" data-name="Group 14" transform="translate(3.565 3)">
      <g id="Group_13" data-name="Group 13" transform="translate(92 129)">
        <g id="podium" transform="translate(0)">
          <g id="Group_2" data-name="Group 2" transform="translate(16.828)">
            <g id="Group_1" data-name="Group 1" transform="translate(0 0)">
              <path id="Path_1" data-name="Path 1" d="M169.348,19.757l-7.084-1.03L159.1,12.307a1.82,1.82,0,0,0-3.266,0l-3.17,6.421-7.084,1.03a1.823,1.823,0,0,0-1.01,3.105l5.128,5-1.211,7.058a1.822,1.822,0,0,0,2.643,1.919l6.337-3.331,6.336,3.331a1.823,1.823,0,0,0,2.643-1.919l-1.211-7.058,5.128-5A1.823,1.823,0,0,0,169.348,19.757Z" transform="translate(-144.017 -11.291)" fill="#1b1464"/>
            </g>
          </g>
          <g id="Group_4" data-name="Group 4" transform="translate(43.712 19.172)">
            <g id="Group_3" data-name="Group 3">
              <path id="Path_2" data-name="Path 2" d="M381.006,174.028l-3.714-.541-1.663-3.367a1.894,1.894,0,0,0-3.266,0l-1.663,3.367-3.714.541a1.823,1.823,0,0,0-1.01,3.105l2.689,2.622-.635,3.7a1.824,1.824,0,0,0,2.643,1.919L374,183.629l3.322,1.747a1.822,1.822,0,0,0,2.643-1.919l-.635-3.7,2.689-2.622A1.823,1.823,0,0,0,381.006,174.028Z" transform="translate(-365.428 -169.186)" fill="#1b1464"/>
            </g>
          </g>
          <g id="Group_6" data-name="Group 6" transform="translate(0 15.529)">
            <g id="Group_5" data-name="Group 5">
              <path id="Path_3" data-name="Path 3" d="M21.007,144.028l-3.714-.541L15.63,140.12a1.894,1.894,0,0,0-3.266,0L10.7,143.487l-3.714.541a1.823,1.823,0,0,0-1.01,3.105l2.689,2.622-.635,3.7a1.823,1.823,0,0,0,2.643,1.919L14,153.629l3.322,1.747a1.823,1.823,0,0,0,2.643-1.919l-.635-3.7,2.689-2.622A1.823,1.823,0,0,0,21.007,144.028Z" transform="translate(-5.428 -139.186)" fill="#1b1464"/>
            </g>
          </g>
          <g id="Group_8" data-name="Group 8" transform="translate(1.146 41.213)">
            <g id="Group_7" data-name="Group 7">
              <path id="Path_4" data-name="Path 4" d="M1.821,350.709A1.82,1.82,0,0,0,0,352.53V367.1a1.82,1.82,0,0,0,1.821,1.821H14.692V350.709Z" transform="translate(0 -350.709)" fill="#1b1464"/>
            </g>
          </g>
          <g id="Group_10" data-name="Group 10" transform="translate(45.011 44.855)">
            <g id="Group_9" data-name="Group 9">
              <path id="Path_5" data-name="Path 5" d="M403.871,380.709H391V395.28h12.871a1.82,1.82,0,0,0,1.821-1.821V382.53A1.82,1.82,0,0,0,403.871,380.709Z" transform="translate(-391 -380.709)" fill="#1b1464"/>
            </g>
          </g>
          <g id="Group_12" data-name="Group 12" transform="translate(17.675 33.927)">
            <g id="Group_11" data-name="Group 11">
              <path id="Path_6" data-name="Path 6" d="M174.677,290.709H152.821A1.82,1.82,0,0,0,151,292.53v23.677h25.5V292.53A1.82,1.82,0,0,0,174.677,290.709Z" transform="translate(-151 -290.709)" fill="#1b1464"/>
            </g>
          </g>
        </g>
      </g>
      <path id="Path_11" data-name="Path 11" d="M4.865-1.3v-9.116L2.5-9.22q-.253-.343-.5-.74a1.433,1.433,0,0,1-.244-.74.812.812,0,0,1,.135-.433,1.123,1.123,0,0,1,.442-.379L4.9-12.849q.361-.181.7-.316a1.833,1.833,0,0,1,.7-.135,1.682,1.682,0,0,1,.614.1,2.486,2.486,0,0,1,.4.19V-1.3Z" transform="translate(117.102 183.549)" fill="#fff"/>
      <path id="Path_9" data-name="Path 9" d="M.52-1.522v-.742q.147-.116.34-.286t.406-.371q.213-.2.433-.421t.421-.445A3.553,3.553,0,0,0,2.6-4.449a1.368,1.368,0,0,0,.182-.669.814.814,0,0,0-.066-.348.594.594,0,0,0-.17-.22A.651.651,0,0,0,2.313-5.8a1.053,1.053,0,0,0-.271-.035,1.329,1.329,0,0,0-.688.178,3.074,3.074,0,0,0-.541.4A2.982,2.982,0,0,1,.554-5.6a.538.538,0,0,1-.1-.271A.29.29,0,0,1,.5-6.037a.67.67,0,0,1,.131-.139q.077-.062.213-.155a2.088,2.088,0,0,1,.325-.178,2.393,2.393,0,0,1,.441-.143,2.459,2.459,0,0,1,.553-.058,2.469,2.469,0,0,1,.657.085,1.478,1.478,0,0,1,.533.263,1.235,1.235,0,0,1,.356.468,1.666,1.666,0,0,1,.131.692,1.739,1.739,0,0,1-.093.561,3.028,3.028,0,0,1-.244.537,3.854,3.854,0,0,1-.344.5q-.193.24-.4.456t-.425.429q-.209.2-.387.359H3.427a.8.8,0,0,1,.305.05.534.534,0,0,1,.193.131A.483.483,0,0,1,4.03-2a.643.643,0,0,1,.031.2q0,.085,0,.147t-.012.131Z" transform="translate(98.274 182.908)" fill="#fff"/>
      <path id="Path_10" data-name="Path 10" d="M3.87-2.917a1.861,1.861,0,0,1-.115.661A1.372,1.372,0,0,1,3.4-1.73a1.634,1.634,0,0,1-.6.344,2.617,2.617,0,0,1-.843.123A3.719,3.719,0,0,1,1.416-1.3,2.818,2.818,0,0,1,1-1.389a1.88,1.88,0,0,1-.3-.119Q.577-1.571.5-1.619a.507.507,0,0,1-.174-.158.352.352,0,0,1-.063-.2,1.509,1.509,0,0,1,.325-.7A2.488,2.488,0,0,0,.8-2.49a1.723,1.723,0,0,0,.3.186,2.046,2.046,0,0,0,.364.139,1.58,1.58,0,0,0,.428.055,1.249,1.249,0,0,0,.333-.044A.735.735,0,0,0,2.5-2.3a.762.762,0,0,0,.2-.261.9.9,0,0,0,.075-.388.76.76,0,0,0-.1-.42.7.7,0,0,0-.245-.238.885.885,0,0,0-.3-.1,1.748,1.748,0,0,0-.257-.024h-.4v-.8h.4a1.053,1.053,0,0,0,.238-.032.823.823,0,0,0,.253-.107.631.631,0,0,0,.2-.214.676.676,0,0,0,.083-.352A.543.543,0,0,0,2.457-5.7.913.913,0,0,0,1.9-5.847a1.4,1.4,0,0,0-.376.048,1.792,1.792,0,0,0-.321.123,2.252,2.252,0,0,0-.281.166q-.131.091-.249.186A1.347,1.347,0,0,1,.41-5.641a.6.6,0,0,1-.1-.285.279.279,0,0,1,.063-.186,1.339,1.339,0,0,1,.135-.139,1.737,1.737,0,0,1,.218-.143,2.211,2.211,0,0,1,.333-.15A2.823,2.823,0,0,1,1.5-6.662a3.044,3.044,0,0,1,.566-.048,2.474,2.474,0,0,1,.76.1,1.493,1.493,0,0,1,.523.281,1.1,1.1,0,0,1,.3.42,1.375,1.375,0,0,1,.1.527,1.285,1.285,0,0,1-.083.483,1.247,1.247,0,0,1-.21.352,1.292,1.292,0,0,1-.265.238,1.919,1.919,0,0,1-.241.139,2.551,2.551,0,0,1,.285.131,1.247,1.247,0,0,1,.3.226,1.157,1.157,0,0,1,.238.36A1.336,1.336,0,0,1,3.87-2.917Z" transform="translate(142.521 184.713)" fill="#fff"/>
    </g>
  </g>
</svg>
