<svg id="Layer_1" data-name="Layer 1" xmlns="http://www.w3.org/2000/svg" viewBox="0 0 64 64"><defs></defs><title>msig-ico</title><path id="Union_17" data-name="Union 17" class="cls-1" d="M47.7,64V48.31H61.57a2,2,0,0,1,2,2h0V62a2,2,0,0,1-2,2Zm8.95-5.49h0a2,2,0,0,0,.65-.37,1.47,1.47,0,0,0,.38-.57,1.94,1.94,0,0,0,.13-.71,1.61,1.61,0,0,0-.1-.58,1.27,1.27,0,0,0-.26-.39,1.49,1.49,0,0,0-.32-.24l-.31-.14.26-.15a1.16,1.16,0,0,0,.28-.26,1.14,1.14,0,0,0,.23-.38,1.5,1.5,0,0,0,.09-.52,1.55,1.55,0,0,0-.11-.56,1.23,1.23,0,0,0-.32-.46,1.79,1.79,0,0,0-.56-.3,2.56,2.56,0,0,0-.82-.1,2.47,2.47,0,0,0-.61,0,4.21,4.21,0,0,0-.48.12,2.26,2.26,0,0,0-.35.17,1.2,1.2,0,0,0-.24.15l-.14.15a.29.29,0,0,0-.07.2.61.61,0,0,0,.11.31,1.49,1.49,0,0,0,.28.34,1.89,1.89,0,0,1,.27-.2,1.49,1.49,0,0,1,.3-.18,1.4,1.4,0,0,1,.34-.13,1.39,1.39,0,0,1,.4-.06,1.06,1.06,0,0,1,.6.16.57.57,0,0,1,.2.5.62.62,0,0,1-.09.38.66.66,0,0,1-.21.23,1,1,0,0,1-.28.12,1.07,1.07,0,0,1-.25,0h-.43V56h.43l.27,0a.76.76,0,0,1,.33.11.78.78,0,0,1,.26.25.81.81,0,0,1,.11.45,1,1,0,0,1-.08.42.76.76,0,0,1-.22.28.73.73,0,0,1-.3.16,1.42,1.42,0,0,1-.36,0,1.82,1.82,0,0,1-.46-.06l-.39-.15a1.55,1.55,0,0,1-.32-.2l-.23-.2a1.66,1.66,0,0,0-.35.76.33.33,0,0,0,.07.21.52.52,0,0,0,.19.17,1,1,0,0,0,.21.12,1.79,1.79,0,0,0,.32.13,3.63,3.63,0,0,0,.45.1,3.77,3.77,0,0,0,.58,0A3.1,3.1,0,0,0,56.65,58.51ZM18.26,64V38.5a2,2,0,0,1,2-2H43.77a2,2,0,0,1,2,2h0V64ZM31.5,57.35h2.64V44.74a2.44,2.44,0,0,0-.43-.21,1.87,1.87,0,0,0-.66-.11,2,2,0,0,0-.76.15c-.24.1-.5.21-.75.34l-2.77,1.44a1.16,1.16,0,0,0-.47.41.93.93,0,0,0-.15.46,1.63,1.63,0,0,0,.27.8c.17.29.35.55.53.8l2.55-1.29ZM2.42,64a2,2,0,0,1-2-2V46.34a2,2,0,0,1,2-2H16.29V64ZM8.48,51.81a.64.64,0,0,1,.25.12.69.69,0,0,1,.18.24.81.81,0,0,1,.07.37,1.39,1.39,0,0,1-.2.72,3.66,3.66,0,0,1-.52.72c-.14.16-.3.32-.45.48s-.31.31-.47.45-.3.28-.43.4-.26.23-.37.31v.8h3.8a.66.66,0,0,0,0-.14v-.16a.56.56,0,0,0,0-.22.52.52,0,0,0-.11-.19.6.6,0,0,0-.21-.14.74.74,0,0,0-.33,0H8.08l.41-.39L9,54.67c.15-.16.29-.32.43-.49a4,4,0,0,0,.37-.54,2.72,2.72,0,0,0,.26-.58,1.76,1.76,0,0,0,.1-.6,1.68,1.68,0,0,0-.14-.74,1.17,1.17,0,0,0-.38-.5A1.62,1.62,0,0,0,9,50.93a2.66,2.66,0,0,0-1.78.13,1.7,1.7,0,0,0-.35.19l-.23.16-.14.15a.31.31,0,0,0,0,.18.57.57,0,0,0,.11.29,2,2,0,0,0,.28.37A3.12,3.12,0,0,1,7.44,52a1.48,1.48,0,0,1,.71-.19h0A1,1,0,0,1,8.48,51.81ZM58.75,36.57l-3.32-1.74L52.1,36.57a1.82,1.82,0,0,1-2.64-1.92l.63-3.7-2.68-2.62a1.82,1.82,0,0,1,0-2.58,1.85,1.85,0,0,1,1-.52l3.71-.54,1.67-3.37a1.88,1.88,0,0,1,3.26,0l1.66,3.36,3.72.54A1.83,1.83,0,0,1,64,27.29a1.8,1.8,0,0,1-.53,1L60.76,31l.64,3.7a1.83,1.83,0,0,1-1.49,2.11,1.87,1.87,0,0,1-1.16-.19Zm-46.86,0L8.57,34.83,5.24,36.57a1.82,1.82,0,0,1-2.46-.77,1.77,1.77,0,0,1-.18-1.15L3.23,31,.54,28.33a1.83,1.83,0,0,1,0-2.58,1.79,1.79,0,0,1,1-.52l3.72-.54,1.66-3.37a1.91,1.91,0,0,1,3.27,0l1.66,3.37,3.71.54a1.81,1.81,0,0,1,1.54,2.07,1.77,1.77,0,0,1-.53,1L13.9,31l.63,3.7a1.81,1.81,0,0,1-2.64,1.92Zm11.88-8.86a2,2,0,0,1-1.6-2.26h0l1.3-7.6L18,12.46a2,2,0,0,1,0-2.77A1.92,1.92,0,0,1,19,9.12L26.67,8,30.08,1.1A2,2,0,0,1,32.7.2a2,2,0,0,1,.9.9L37,8l7.63,1.11a2,2,0,0,1,1.66,2.23,2,2,0,0,1-.56,1.12L40.2,17.85l1.3,7.6a2,2,0,0,1-2.84,2.07l-6.83-3.59L25,27.52a2.08,2.08,0,0,1-.92.22l-.32,0Z"/></svg>