<svg xmlns="http://www.w3.org/2000/svg" width="67.66" height="59.36" viewBox="0 0 67.66 59.36">
  <path id="laurels-with-torch" d="M585.846,331.855c-1.745-2.8-4.218-2.88-6.023-2.938s-2.4-.143-2.9-1.483,1.7-3.321,2.846-4.061a1.532,1.532,0,0,0,.043-2.554,6.133,6.133,0,0,0-3.413-.685,24.25,24.25,0,0,0-4.264.444,13.492,13.492,0,0,0-10.678,13.967c.5,6.959,6.569,10.337,6.827,10.478a1.533,1.533,0,0,0,.733.186H571.4a1.533,1.533,0,0,0,1.223-2.456l-.186-.294a12.583,12.583,0,0,1-2.472-6.653,8.119,8.119,0,0,1,1.519-5.02,9.64,9.64,0,0,0,1.5,3.46,6.568,6.568,0,0,0,3.9,2.43c1.629.5,2.178.665,2.124,2.7a33.753,33.753,0,0,1-.49,4.052,1.534,1.534,0,0,0,1.267,1.759,1.59,1.59,0,0,0,.246.02h1.491a1.533,1.533,0,0,0,1.167-.539c.257-.309,6.4-7.624,3.162-12.811ZM563,369.223a26.3,26.3,0,0,1-5.9-3.751l.194-6.581a1.515,1.515,0,0,0-3.028-.087l-.112,3.862a26.338,26.338,0,0,1-2.536-3.26l1.966-5.945a1.515,1.515,0,0,0-2.876-.951l-1.068,3.239a24.391,24.391,0,0,1-1.146-3.213l3.414-6.027a1.514,1.514,0,1,0-2.635-1.492h0l-1.639,2.893a30.086,30.086,0,0,1-.136-4.752l4.519-4.607a1.515,1.515,0,0,0-2.162-2.121l-1.624,1.66a26.53,26.53,0,0,1,1.355-4.113l4.377-1.607a1.515,1.515,0,0,0-1.044-2.844h0l-1.188.436a16,16,0,0,1,1.5-1.962,1.514,1.514,0,0,0-2.191-2.085,19.851,19.851,0,0,0-2.208,2.982l-.6-1.823a1.515,1.515,0,0,0-2.881.935l1.512,4.654a29.667,29.667,0,0,0-1.685,5.218l-1.227-2.066a1.515,1.515,0,1,0-2.6,1.548l3.148,5.3a33.034,33.034,0,0,0,.232,6.436l-2.369-1.568a1.515,1.515,0,0,0-1.675,2.526l4.868,3.221a27.718,27.718,0,0,0,1.585,4.345l-3.534-.922a1.515,1.515,0,1,0-.765,2.931l6.353,1.657a28.931,28.931,0,0,0,3.024,3.812l-3.557.074a1.515,1.515,0,1,0,.031,3.029h.026l6.046-.125a1.492,1.492,0,0,0,.53-.113,28.39,28.39,0,0,0,6.561,4.065A1.516,1.516,0,0,0,563,369.223Zm20.86,1.945a1.517,1.517,0,0,0,1.962.862,28.388,28.388,0,0,0,6.561-4.065,1.493,1.493,0,0,0,.53.113l6.046.125h.027a1.515,1.515,0,1,0,.03-3.029l-3.557-.074a29.025,29.025,0,0,0,3.025-3.812l6.353-1.657a1.515,1.515,0,0,0-.766-2.931l-3.534.922a27.821,27.821,0,0,0,1.586-4.345l4.867-3.221a1.515,1.515,0,0,0-1.674-2.526l-2.369,1.568a33.039,33.039,0,0,0,.233-6.436l3.147-5.3a1.515,1.515,0,1,0-2.6-1.548l-1.227,2.066a29.672,29.672,0,0,0-1.685-5.218l1.512-4.654a1.515,1.515,0,0,0-2.881-.935l-.6,1.823a19.855,19.855,0,0,0-2.208-2.982A1.514,1.514,0,0,0,594.449,328a16.106,16.106,0,0,1,1.5,1.962l-1.189-.436h0a1.515,1.515,0,1,0-1.043,2.844l4.377,1.607a26.637,26.637,0,0,1,1.354,4.113l-1.624-1.66a1.515,1.515,0,0,0-2.162,2.121l4.519,4.607a29.984,29.984,0,0,1-.136,4.752l-1.638-2.893h0a1.515,1.515,0,0,0-2.636,1.492l3.414,6.027a24.39,24.39,0,0,1-1.146,3.213l-1.068-3.239a1.515,1.515,0,1,0-2.876.951l1.966,5.945a26.239,26.239,0,0,1-2.536,3.26l-.112-3.862a1.515,1.515,0,0,0-3.028.087l.194,6.581a26.276,26.276,0,0,1-5.9,3.751A1.516,1.516,0,0,0,583.863,371.168Zm2.686-25.531h-22.47a5.688,5.688,0,0,0,4.354,5.525c1.367,3.743,4.14,5.9,4.437,11.291-1.063.32-1.884,2.225-1.884,2.225s.825,1.914,1.892,2.228c-.057,6.709-.058,12.563,2.579,12.563s2.635-5.854,2.578-12.563c1.067-.313,1.892-2.228,1.892-2.228s-.821-1.9-1.884-2.225c.3-5.43,3.109-7.58,4.465-11.371A5.69,5.69,0,0,0,586.549,345.638Z" transform="translate(-540.012 -320.11)" fill="#1b1464"/>
</svg>
