<svg id="Group_1637" data-name="Group 1637" xmlns="http://www.w3.org/2000/svg" width="53.728" height="57.803" viewBox="0 0 53.728 57.803">
  <g id="planning" transform="translate(0)">
    <g id="Group_453" data-name="Group 453" transform="translate(28.773 28.965)">
      <g id="Group_452" data-name="Group 452">
        <path id="Path_347" data-name="Path 347" d="M310.07,302a10.07,10.07,0,1,0,0,20.141,10.072,10.072,0,1,0,0-20.141Zm2.877,11.509H310.07a1.438,1.438,0,0,1-1.439-1.439v-2.877a1.439,1.439,0,1,1,2.877,0v1.439h1.439a1.439,1.439,0,1,1,0,2.877Z" transform="translate(-300 -302)" fill="#1b1464"/>
      </g>
    </g>
    <g id="Group_455" data-name="Group 455" transform="translate(0 36.158)">
      <g id="Group_454" data-name="Group 454">
        <path id="Path_348" data-name="Path 348" d="M5.755,377H2.877a2.877,2.877,0,1,0,0,5.755H5.755a2.877,2.877,0,1,0,0-5.755Z" transform="translate(0 -377)" fill="#1b1464"/>
      </g>
    </g>
    <g id="Group_457" data-name="Group 457" transform="translate(0 21.771)">
      <g id="Group_456" data-name="Group 456">
        <path id="Path_349" data-name="Path 349" d="M5.755,227H2.877a2.877,2.877,0,1,0,0,5.755H5.755a2.877,2.877,0,1,0,0-5.755Z" transform="translate(0 -227)" fill="#1b1464"/>
      </g>
    </g>
    <g id="Group_459" data-name="Group 459" transform="translate(0 7.193)">
      <g id="Group_458" data-name="Group 458">
        <path id="Path_350" data-name="Path 350" d="M5.755,75H2.877a2.877,2.877,0,0,0,0,5.755H5.755a2.877,2.877,0,0,0,0-5.755Z" transform="translate(0 -75)" fill="#1b1464"/>
      </g>
    </g>
    <g id="Group_461" data-name="Group 461" transform="translate(5.755)">
      <g id="Group_460" data-name="Group 460">
        <path id="Path_351" data-name="Path 351" d="M95.966,0H64.316A4.321,4.321,0,0,0,60,4.316a5.755,5.755,0,0,1,0,11.509v3.069A5.755,5.755,0,0,1,60,30.4v2.877A5.755,5.755,0,0,1,60,44.79a4.321,4.321,0,0,0,4.316,4.316H85.051C82.083,46.731,98.415,26.9,100.474,28.279V4.316A4.489,4.489,0,0,0,95.966,0ZM79.72,31.42l-5.755,5.755a1.438,1.438,0,0,1-2.034,0l-3.282-3.282a1.438,1.438,0,0,1,2.034-2.034l2.265,2.265,4.737-4.737A1.438,1.438,0,1,1,79.72,31.42Zm0-11.509-5.755,5.755a1.438,1.438,0,0,1-2.034,0l-3.282-3.282a1.438,1.438,0,1,1,2.034-2.034l2.265,2.265,4.737-4.737a1.438,1.438,0,1,1,2.034,2.034Zm0-11.7-5.755,5.755a1.438,1.438,0,0,1-2.034,0l-3.282-3.282a1.438,1.438,0,1,1,2.034-2.034l2.265,2.265,4.737-4.737A1.438,1.438,0,1,1,79.72,8.21Zm13.369,15H84.457a1.439,1.439,0,0,1,0-2.877h8.632a1.439,1.439,0,1,1,0,2.877Zm0-11.7H84.457a1.439,1.439,0,0,1,0-2.877h8.632a1.439,1.439,0,1,1,0,2.877Z" transform="translate(-60)" fill="#1b1464"/>
      </g>
    </g>
  </g>
  <path id="Path_347-2" data-name="Path 347" d="M-248.652,545.006c-2.625-.766-5.1-1.49-7.608-2.2a4.2,4.2,0,0,0-2.265.038c-2.988.845-5.908,1.677-8.781,2.555a3.523,3.523,0,0,0-2.348,3.172q0,1.022,0,2.044c-.005,2.847-.011,5.791.159,8.713a16.4,16.4,0,0,0,10.889,13.9,4.33,4.33,0,0,0,1.327.207,3.871,3.871,0,0,0,1.414-.255c5.922-2.341,9.524-6.489,10.415-12a65.312,65.312,0,0,0,.616-9.206c.025-1.284.051-2.612.111-3.9l.089-1.9-1.958-.57Z" transform="translate(297.847 -516.126)" fill="#1b1464" stroke="#fff" stroke-width="1"/>
  <path id="Path_348-2" data-name="Path 348" d="M-239.051,556.051c-.2,4.293-.019,8.632-.7,12.831-.813,5.023-4.222,8.279-8.919,10.137a1.772,1.772,0,0,1-1.109,0c-4.811-1.563-8.933-6.694-9.224-11.739-.2-3.532-.147-7.081-.153-10.622a1.152,1.152,0,0,1,.641-.86c2.9-.886,5.815-1.715,8.732-2.54a1.835,1.835,0,0,1,.948-.039C-245.647,554.122-242.467,555.056-239.051,556.051Z" transform="translate(289.761 -524.216)" fill="#fff"/>
  <path id="Path_349-2" data-name="Path 349" d="M-242.072,569.35l2.307,4.675,5.159.75-3.733,3.639.881,5.138-4.614-2.426-4.614,2.426.881-5.138-3.733-3.639,5.159-.75Z" transform="translate(283.105 -536.676)" fill="#1b1464"/>
</svg>
